<?xml version="1.0" encoding="utf-8"?>
<!-- Generator: Adobe Illustrator 23.1.1, SVG Export Plug-In . SVG Version: 6.00 Build 0)  -->
<svg version="1.1" id="レイヤー_1" xmlns="http://www.w3.org/2000/svg" xmlns:xlink="http://www.w3.org/1999/xlink" x="0px"
	 y="0px" viewBox="0 0 24 24" style="enable-background:new 0 0 24 24;" xml:space="preserve">
<style type="text/css">
	.st0{fill:#333333;}
</style>
<path class="st0" d="M12,2c5.51,0,10,4.49,10,10s-4.49,10-10,10S2,17.51,2,12S6.49,2,12,2z M12,0C5.37,0,0,5.37,0,12s5.37,12,12,12
	s12-5.37,12-12S18.63,0,12,0z M16,17H8v-6h8V17z M10,11V9c0-1.1,0.9-2,2-2s2,0.9,2,2v2h1V9c0-1.66-1.34-3-3-3S9,7.34,9,9v2H10z"/>
</svg>
