<?xml version="1.0" encoding="utf-8"?>
<!-- Generator: Adobe Illustrator 24.0.1, SVG Export Plug-In . SVG Version: 6.00 Build 0)  -->
<svg version="1.2" baseProfile="tiny" id="レイヤー_1"
	 xmlns="http://www.w3.org/2000/svg" xmlns:xlink="http://www.w3.org/1999/xlink" x="0px" y="0px" viewBox="0 0 45.4 34"
	 xml:space="preserve">
<path d="M10.9,20.2c0-0.6,0.4-1,1-1s1,0.4,1,1s-0.4,1-1,1S10.9,20.8,10.9,20.2z M17.1,20.2l-1.7,2.6l-1.3-1.6l-3.2,4h10L17.1,20.2z
	 M24.9,15.2v14h-18v-14H24.9z M22.9,17.2h-14v10h14V17.2z M16.5,7.9l2.2,5.4h2.2l-3.3-8L0.9,12.2l4,9.7v-5.3l-1.4-3.3
	C3.5,13.2,16.5,7.9,16.5,7.9z"/>
<circle fill="#FFFFFF" stroke="#000000" stroke-miterlimit="10" cx="25.2" cy="16.3" r="8.6"/>
<text transform="matrix(1 0 0 1 21.868 19.7312)" font-family="'GillSans'" font-size="12px">$</text>
</svg>
