<?xml version="1.0" encoding="utf-8"?>
<!-- Generator: Adobe Illustrator 23.1.1, SVG Export Plug-In . SVG Version: 6.00 Build 0)  -->
<svg version="1.1" id="レイヤー_1" xmlns="http://www.w3.org/2000/svg" xmlns:xlink="http://www.w3.org/1999/xlink" x="0px"
	 y="0px" viewBox="0 0 141.73 141.73" style="enable-background:new 0 0 141.73 141.73;" xml:space="preserve">
<style type="text/css">
	.st0{fill:#FFFFFF;stroke:#FFFFFF;stroke-miterlimit:10;}
	.st1{fill:#333333;}
	.st2{fill:#EEEEEE;stroke:#333333;stroke-width:3;}
	.st3{fill:#FF8500;}
	.st4{fill:none;stroke:#333333;stroke-width:3;}
</style>
<rect x="4.77" y="4.26" class="st0" width="133.04" height="133.04"/>
<g>
	<path class="st1" d="M72.82,133.92L22.68,94.19l-0.42-71.84L72.15,7.82l46.99,14.03l0.42,71.7L72.82,133.92z M30.97,90.15
		l41.63,32.99l38.64-33.37l-0.36-61.72L72.13,16.48L30.61,28.57L30.97,90.15z"/>
	<polygon class="st2" points="115.4,91.66 72.71,128.53 26.83,92.17 26.44,25.46 72.14,12.15 115.01,24.95 	"/>
	<polygon class="st3" points="115.3,91.76 72.37,127.28 72.37,13.71 115.3,25.42 	"/>
	<g>
		<polygon class="st4" points="115.4,91.66 72.71,128.53 26.83,92.17 26.44,25.46 72.14,12.15 115.01,24.95 		"/>
	</g>
	<path class="st1" d="M72.72,128.75l-0.11-0.09L26.66,92.25v-0.08l-0.39-66.84l0.13-0.04l45.75-13.33l0.05,0.01l42.99,12.84v0.13
		l0.39,66.79l-0.06,0.05L72.72,128.75z M27,92.09l45.71,36.22l42.52-36.73l-0.39-66.5l-42.7-12.75L26.61,25.59L27,92.09z"/>
</g>
</svg>
