<?xml version="1.0" encoding="utf-8"?>
<!-- Generator: Adobe Illustrator 24.0.1, SVG Export Plug-In . SVG Version: 6.00 Build 0)  -->
<svg version="1.2" baseProfile="tiny" id="レイヤー_1"
	 xmlns="http://www.w3.org/2000/svg" xmlns:xlink="http://www.w3.org/1999/xlink" x="0px" y="0px" viewBox="0 0 41.8 17.9"
	 xml:space="preserve">
<polygon fill="#FFFFFF" stroke="#F08218" stroke-width="0.5" stroke-miterlimit="10" points="34.9,17.6 0.2,17.6 0.2,0.2 34.9,0.2 
	34.9,7.2 41.1,9.2 34.9,11.9 "/>
<g>
	<path fill="#FF8500" d="M9.1,7.3C9.1,7.3,9,7.4,9,7.4C8.5,8.1,7.8,9.1,6.8,9.8c0.3,0.3,0.8,0.8,1,1.1l-0.4,0.3
		c-0.2-0.3-0.7-0.8-1-1.2C6,9.7,5.3,9.1,5,8.9l0.4-0.3c0.2,0.2,0.7,0.5,1.1,0.9C7.4,8.8,8,8,8.3,7.5H4.9c-0.2,0-0.5,0-0.6,0V7
		c0.2,0,0.4,0,0.6,0h3.5c0.2,0,0.3,0,0.4,0L9.1,7.3z"/>
	<path fill="#FF8500" d="M14,6.8c-0.4,0.4-1,0.9-1.6,1.3v2.5c0,0.2,0,0.5,0,0.6h-0.6c0-0.1,0-0.4,0-0.6V8.3C11.4,8.7,10.6,9,9.8,9.2
		L9.5,8.8c1-0.2,2-0.7,2.6-1.1c0.6-0.4,1.2-0.9,1.5-1.3L14,6.8z"/>
	<path fill="#FF8500" d="M19.4,9.1c-0.1,0-0.3,0-0.5,0.1c-0.3,0.1-0.9,0.1-1.4,0.2c0.1,0.6,0.2,1,0.2,1.2c0,0.2,0.1,0.4,0.1,0.5
		l-0.5,0.1c0-0.2,0-0.4-0.1-0.5c0-0.1-0.1-0.6-0.2-1.2c-0.7,0.1-1.3,0.2-1.6,0.3c-0.2,0-0.4,0.1-0.5,0.1l-0.1-0.5
		c0.1,0,0.4,0,0.5-0.1c0.3,0,0.9-0.1,1.6-0.2l-0.2-1.2c-0.6,0.1-1.1,0.2-1.3,0.2c-0.2,0-0.3,0.1-0.5,0.1l-0.1-0.5c0.1,0,0.3,0,0.5,0
		c0.2,0,0.7-0.1,1.3-0.2c-0.1-0.3-0.1-0.5-0.1-0.6c0-0.2-0.1-0.3-0.1-0.4l0.5-0.1c0,0.1,0,0.3,0.1,0.4c0,0.1,0.1,0.3,0.1,0.6
		c0.6-0.1,1.1-0.2,1.3-0.2c0.2,0,0.3-0.1,0.4-0.1l0.1,0.5c-0.1,0-0.3,0-0.4,0.1c-0.3,0-0.8,0.1-1.4,0.2L17.4,9
		c0.6-0.1,1.1-0.2,1.4-0.2c0.2,0,0.4-0.1,0.5-0.1L19.4,9.1z"/>
	<path fill="#FF8500" d="M24.4,8.2c-0.2,0.5-0.8,1.3-1.2,1.7l-0.4-0.2c0.4-0.3,0.8-0.9,1-1.2c-0.1,0-1,0.2-1.8,0.4
		c0.2,0.8,0.5,1.9,0.6,2.1c0,0.1,0.1,0.3,0.1,0.4l-0.5,0.1c0-0.1,0-0.3-0.1-0.4c-0.1-0.3-0.4-1.3-0.6-2.1c-0.5,0.1-1,0.2-1.2,0.2
		l-0.1-0.4c0.2,0,0.3,0,0.5-0.1c0.1,0,0.4-0.1,0.7-0.1c-0.1-0.3-0.2-0.6-0.2-0.7c0-0.1-0.1-0.3-0.1-0.3l0.5-0.1c0,0.1,0,0.2,0.1,0.4
		l0.2,0.7c0.8-0.2,1.8-0.3,2-0.4C23.9,8,24,8,24.1,8L24.4,8.2z"/>
	<path fill="#FF8500" d="M29.3,8.2c0,0.1-0.1,0.1-0.1,0.2c-0.2,0.6-0.4,1.2-0.9,1.7c-0.6,0.7-1.3,1-2.1,1.2l-0.4-0.4
		c0.8-0.2,1.6-0.5,2.1-1.1c0.4-0.4,0.6-0.9,0.7-1.3h-3.1c-0.1,0-0.4,0-0.6,0V8c0.2,0,0.4,0,0.6,0h3.1c0.1,0,0.3,0,0.3,0L29.3,8.2z
		 M25.5,6.6c0.2,0,0.3,0,0.5,0h2.3c0.2,0,0.4,0,0.5,0v0.5c-0.1,0-0.3,0-0.5,0h-2.3c-0.2,0-0.4,0-0.5,0V6.6z"/>
</g>
</svg>
