<?xml version="1.0" encoding="utf-8"?>
<!-- Generator: Adobe Illustrator 24.0.1, SVG Export Plug-In . SVG Version: 6.00 Build 0)  -->
<svg version="1.1" id="レイヤー_1" xmlns="http://www.w3.org/2000/svg" xmlns:xlink="http://www.w3.org/1999/xlink" x="0px"
	 y="0px" viewBox="0 0 213.2 215" style="enable-background:new 0 0 213.2 215;" xml:space="preserve">
<style type="text/css">
	.st0{fill:#FFFFFF;}
</style>
<path d="M42.6,43.5c-35.3,35.3-35.3,92.6,0,128c35.3,35.3,92.6,35.3,128,0s35.3-92.6,0-128C135.2,8.2,77.9,8.2,42.6,43.5z
	 M54.6,55.5c26.7-26.7,68.7-28.5,97.6-5.7L49,153.1C26.1,124.3,28,82.2,54.6,55.5z M158.6,159.5c-26.7,26.7-68.7,28.5-97.6,5.7
	L164.2,61.9C187.1,90.8,185.2,132.8,158.6,159.5z"/>
<g>
	<rect x="15.6" y="92" class="st0" width="182" height="31"/>
</g>
<g>
	<path d="M45.8,116h-4.4l-8.5-9.1v9.1H28V99.7h4.4l8.5,9.1v-9.1h4.9V116z"/>
	<path d="M67.4,107.8c0,1.5-0.4,2.9-1.1,4.2s-1.8,2.3-3.1,3.1c-1.4,0.8-3.1,1.1-5.1,1.1c-2,0-3.7-0.4-5.1-1.2
		c-1.4-0.8-2.4-1.8-3.1-3.1c-0.7-1.3-1-2.7-1-4.1c0-1.5,0.3-2.8,1-4.1s1.7-2.3,3.1-3.1s3.1-1.2,5.1-1.2c1.5,0,2.9,0.2,4,0.7
		c1.2,0.4,2.2,1.1,2.9,1.8c0.8,0.8,1.3,1.7,1.7,2.7C67.2,105.7,67.4,106.7,67.4,107.8z M62.4,107.8c0-0.6-0.1-1.2-0.3-1.7
		c-0.2-0.5-0.5-0.9-0.8-1.3c-0.4-0.4-0.8-0.7-1.3-0.9s-1.1-0.3-1.8-0.3c-1.3,0-2.4,0.4-3.1,1.2c-0.8,0.8-1.1,1.8-1.1,3
		s0.4,2.3,1.1,3c0.8,0.8,1.8,1.2,3.1,1.2c0.9,0,1.7-0.2,2.3-0.5c0.6-0.4,1.1-0.9,1.5-1.5C62.2,109.4,62.4,108.7,62.4,107.8z"/>
	<path d="M90.1,116H77.6V99.7h4.9v12.4h7.5V116z"/>
	<path d="M97.9,116H93V99.7h4.9V116z"/>
	<path d="M116.7,114.8c-0.7,0.4-1.4,0.6-2.1,0.8c-0.7,0.2-1.4,0.4-2.1,0.5c-0.7,0.1-1.5,0.1-2.2,0.1c-1.4,0-2.7-0.2-3.8-0.6
		c-1.1-0.4-2.1-1-2.9-1.7s-1.5-1.7-1.9-2.7s-0.6-2.2-0.6-3.4c0-1.4,0.2-2.6,0.7-3.7c0.5-1.1,1.2-1.9,2-2.6c0.9-0.7,1.9-1.2,3-1.6
		s2.3-0.5,3.5-0.5c1.9,0,4,0.4,6.3,1.2v4.3c-0.8-0.5-1.6-0.9-2.4-1.3c-0.8-0.3-1.7-0.5-2.8-0.5c-1,0-1.8,0.2-2.7,0.6
		c-0.8,0.4-1.5,0.9-2,1.6c-0.5,0.7-0.8,1.5-0.8,2.5c0,0.8,0.2,1.6,0.7,2.3s1.1,1.2,1.8,1.6c0.8,0.4,1.7,0.6,2.6,0.6
		c0.8,0,1.5-0.1,2.3-0.3c0.7-0.2,1.3-0.4,1.8-0.6s1-0.5,1.5-0.8V114.8z"/>
	<path d="M132.3,116H120V99.7h12.1v3.3h-7.2v3h6.9v3.3h-6.9v3.5h7.4V116z"/>
	<path d="M153.4,116H149l-8.5-9.1v9.1h-4.9V99.7h4.4l8.5,9.1v-9.1h4.9V116z"/>
	<path d="M168.9,111.3c0,1-0.3,1.9-0.8,2.7c-0.5,0.7-1.3,1.3-2.2,1.7c-0.9,0.4-2,0.6-3.2,0.6c-0.3,0-0.8,0-1.2-0.1
		c-0.5,0-1.1-0.2-2-0.4c-0.8-0.2-1.7-0.5-2.5-0.9v-4c0.8,0.5,1.6,0.9,2.4,1.3c0.8,0.3,1.7,0.5,2.6,0.5c0.8,0,1.4-0.1,1.6-0.4
		c0.2-0.3,0.4-0.5,0.4-0.8c0-0.4-0.2-0.8-0.6-1.1c-0.4-0.3-1-0.6-1.9-0.9c-0.9-0.4-1.7-0.8-2.4-1.2s-1.2-1-1.7-1.7
		c-0.4-0.7-0.6-1.5-0.6-2.4c0-0.9,0.2-1.7,0.6-2.4s1.1-1.3,2-1.7c0.9-0.4,2-0.6,3.3-0.6c0.9,0,1.8,0.1,2.5,0.3
		c0.8,0.2,1.4,0.4,1.9,0.6c0.5,0.2,0.8,0.4,1,0.5v3.8c-0.7-0.5-1.4-0.9-2.2-1.3s-1.7-0.6-2.6-0.6c-0.6,0-1.1,0.1-1.3,0.4
		s-0.4,0.5-0.4,0.9c0,0.3,0.1,0.6,0.4,0.8s0.8,0.5,1.5,0.9c1.3,0.6,2.3,1.1,3,1.6c0.8,0.5,1.3,1,1.8,1.6
		C168.7,109.6,168.9,110.4,168.9,111.3z"/>
	<path d="M184.6,116h-12.3V99.7h12.1v3.3h-7.2v3h6.9v3.3h-6.9v3.5h7.4V116z"/>
</g>
</svg>
