<?xml version="1.0" encoding="utf-8"?>
<!-- Generator: Adobe Illustrator 23.1.1, SVG Export Plug-In . SVG Version: 6.00 Build 0)  -->
<svg version="1.1" id="レイヤー_1" xmlns="http://www.w3.org/2000/svg" xmlns:xlink="http://www.w3.org/1999/xlink" x="0px"
	 y="0px" viewBox="0 0 18 18" style="enable-background:new 0 0 18 18;" xml:space="preserve">
<style type="text/css">
	.st0{fill:#FF8500;}
</style>
<path class="st0" d="M7.47,6.2c-0.43-0.44-0.4-1.13,0.03-1.55l4.46-4.33C12.19,0.11,12.47,0,12.74,0c0.28,0,0.56,0.11,0.78,0.33
	C13.52,0.33,7.47,6.2,7.47,6.2z M0.14,17.22C0.05,17.31,0,17.42,0,17.54C0,17.79,0.2,18,0.46,18c0.11,0,0.23-0.04,0.32-0.13
	l0.75-0.73l-0.63-0.65L0.14,17.22z M6.47,8.79l-2.56,2.48c-1.38,1.34-2.08,2.63-2.73,4.44l1.13,1.17c1.82-0.59,3.14-1.25,4.52-2.59
	l2.56-2.49C9.39,11.81,6.47,8.79,6.47,8.79z M13.95,1.13l-6.6,6.41l3.33,3.43l6.6-6.4C17.76,4.1,18,3.48,18,2.85
	C18,0.76,15.47-0.35,13.95,1.13z"/>
</svg>
