<?xml version="1.0" encoding="utf-8"?>
<!-- Generator: Adobe Illustrator 23.1.1, SVG Export Plug-In . SVG Version: 6.00 Build 0)  -->
<svg version="1.1" id="レイヤー_1" xmlns="http://www.w3.org/2000/svg" xmlns:xlink="http://www.w3.org/1999/xlink" x="0px"
	 y="0px" viewBox="0 0 24 24" style="enable-background:new 0 0 24 24;" xml:space="preserve">
<style type="text/css">
	.st0{fill:#FF8500;}
</style>
<path class="st0" d="M19,2c1.65,0,3,1.35,3,3v14c0,1.65-1.35,3-3,3H5c-1.65,0-3-1.35-3-3V5c0-1.65,1.35-3,3-3H19z M19,0H5
	C2.24,0,0,2.24,0,5v14c0,2.76,2.24,5,5,5h14c2.76,0,5-2.24,5-5V5C24,2.24,21.76,0,19,0z M12,6c-3.31,0-6,2.69-6,6s2.69,6,6,6
	s6-2.69,6-6S15.31,6,12,6z M12,16c-2.21,0-4-1.79-4-4s1.79-4,4-4c2.2,0,4,1.79,4,4S14.2,16,12,16z M19,6c-0.55,0-1-0.45-1-1
	s0.45-1,1-1s1,0.45,1,1S19.55,6,19,6z"/>
</svg>
