<?xml version="1.0" encoding="utf-8"?>
<!-- Generator: Adobe Illustrator 24.0.1, SVG Export Plug-In . SVG Version: 6.00 Build 0)  -->
<svg version="1.1" id="レイヤー_1" xmlns="http://www.w3.org/2000/svg" xmlns:xlink="http://www.w3.org/1999/xlink" x="0px"
	 y="0px" viewBox="0 0 55.9 18.4" style="enable-background:new 0 0 55.9 18.4;" xml:space="preserve">
<style type="text/css">
	.st0{fill:#FFFFFF;stroke:#F08218;stroke-width:0.5;stroke-miterlimit:10;}
	.st1{fill:#F08218;}
</style>
<polygon class="st0" points="46.1,17.9 0.5,17.9 0.5,0.5 46.1,0.5 46.1,7.4 51.8,9.5 46.1,12.1 "/>
<path class="st1" d="M4.3,8.9C4.8,9.3,5,9.5,5.6,10c0.3-0.2,0.6-0.5,0.8-0.7c0.3-0.4,0.7-0.9,1-1.3c0,0,0,0,0.1-0.1
	c-0.1,0-0.1,0-3.4,0c-0.3,0-0.5,0-0.7,0V7.5c0.2,0,0.3,0,0.7,0h3.5c0.2,0,0.2,0,0.3,0l0.2,0.3C8,7.8,7.9,7.9,7.8,8.1
	c-0.6,0.9-1.2,1.6-2,2.2c0.2,0.2,0.5,0.6,0.9,1.1l-0.4,0.3C5.8,10.9,4.9,9.9,4,9.1L4.3,8.9z"/>
<path class="st1" d="M12.8,7.2c-0.1,0.1-0.1,0.1-0.3,0.2c-0.4,0.4-0.9,0.8-1.4,1.2v2.6c0,0.3,0,0.5,0,0.6h-0.5c0-0.2,0-0.3,0-0.6
	V8.9C9.9,9.4,9.5,9.6,8.4,10C8.3,9.8,8.3,9.8,8.1,9.6c1.1-0.3,2.2-0.8,3.1-1.6c0.6-0.4,1-0.8,1.1-1.1L12.8,7.2z"/>
<path class="st1" d="M15.2,7.4c0-0.2-0.1-0.4-0.1-0.5l0.5-0.1c0,0.1,0,0.3,0.1,0.5L15.8,8l1.3-0.2c0.3,0,0.4-0.1,0.5-0.1l0.1,0.4
	c-0.2,0-0.2,0-0.5,0.1l-1.4,0.2l0.2,1.2l1.5-0.2c0.3-0.1,0.4-0.1,0.6-0.1l0.1,0.4c-0.1,0-0.2,0-0.3,0c0,0-0.1,0-0.2,0
	c-0.1,0-0.1,0-0.1,0L16.1,10l0.2,1.3c0,0.3,0.1,0.4,0.1,0.6L16,12c0-0.2,0-0.3-0.1-0.6l-0.2-1.3l-1.6,0.3c-0.3,0.1-0.4,0.1-0.6,0.1
	L13.4,10c0.2,0,0.4,0,0.6-0.1l1.6-0.3l-0.2-1.2l-1.2,0.2c-0.2,0-0.4,0.1-0.6,0.1l-0.1-0.5c0.2,0,0.4,0,0.6-0.1l1.2-0.2L15.2,7.4z"/>
<path class="st1" d="M19.9,8.4c-0.1-0.3-0.1-0.3-0.1-0.4l0.4-0.1c0,0.1,0,0.1,0.1,0.4l0.1,0.5l2-0.3c0.1,0,0.2,0,0.3-0.1l0.2,0.2
	c0,0.1-0.1,0.1-0.1,0.3c-0.3,0.6-0.6,1-1.2,1.4c-0.1-0.1-0.2-0.2-0.3-0.3c0.5-0.3,0.8-0.6,1.1-1.1c0,0,0,0,0-0.1c-0.1,0-0.1,0-0.2,0
	l-1.8,0.3l0.4,2.2c0.1,0.3,0.1,0.3,0.1,0.5L20.5,12c0-0.1,0-0.3,0-0.5L20,9.3l-0.6,0.1c-0.2,0-0.4,0.1-0.5,0.1l-0.1-0.4
	c0.2,0,0.3,0,0.6-0.1L20,8.9L19.9,8.4z"/>
<path class="st1" d="M23.8,8.5c0.2,0,0.3,0,0.7,0h3.1c0.2,0,0.3,0,0.4,0l0.2,0.3c0,0.1-0.1,0.1-0.2,0.4c-0.5,1.4-1.3,2.2-2.9,2.7
	c-0.1-0.2-0.1-0.2-0.3-0.4c0.8-0.2,1.3-0.5,1.8-0.9c0.4-0.4,0.7-0.8,1-1.6h-3.1c-0.3,0-0.5,0-0.7,0L23.8,8.5L23.8,8.5z M24.4,7.1
	c0.2,0,0.3,0,0.6,0h2c0.3,0,0.5,0,0.6,0v0.5c-0.2,0-0.3,0-0.6,0h-2c-0.3,0-0.5,0-0.6,0L24.4,7.1L24.4,7.1z"/>
<g>
	<path class="st1" d="M30.9,8.7v2c0.5,0.7,1.3,0.7,2.4,0.7c0.7,0,1.4,0,1.9,0c0,0.1-0.1,0.3-0.1,0.4c-0.4,0-1.1,0-1.7,0
		c-1.2,0-2.1,0-2.7-0.8c-0.3,0.3-0.6,0.5-0.9,0.7c0,0.1,0,0.1-0.1,0.1l-0.2-0.4c0.3-0.2,0.6-0.5,1-0.7V9.1h-0.9V8.7H30.9z M30,6.4
		c0.4,0.3,0.9,0.7,1.1,1l-0.3,0.3c-0.2-0.3-0.7-0.7-1.1-1L30,6.4z M32.1,10.8V11h-0.4V6.9h1c0.1-0.2,0.2-0.5,0.2-0.7l0.5,0.1
		c0,0-0.1,0.1-0.1,0.1c-0.1,0.1-0.1,0.3-0.2,0.5h1.4v1.6h-2.4v0.6h2.7v2h-0.4v-0.3H32.1z M34.2,7.3h-2v0.9h2V7.3z M34.4,9.4h-2.3v1
		h2.3V9.4z"/>
	<path class="st1" d="M38,7.4L38,7.4l0.3,0c0,0,0,0.1,0,0.1c0,2.8-0.1,3.7-0.3,3.9c-0.1,0.2-0.3,0.2-0.7,0.2c-0.1,0-0.3,0-0.4,0
		c0-0.1,0-0.3-0.1-0.4c0.3,0,0.5,0,0.6,0c0.1,0,0.2,0,0.2-0.1c0.1-0.2,0.2-1,0.2-3.4h-1c-0.1,1.6-0.2,3.1-1,4
		c-0.1-0.1-0.2-0.2-0.3-0.3c0.7-0.8,0.9-2.2,0.9-3.8h-0.8V7.4h0.8c0-0.4,0-0.8,0-1.2l0.6,0c0,0.1-0.1,0.1-0.2,0.1c0,0.4,0,0.7,0,1.1
		H38z M38.9,7H41v4.7h-0.4v-0.4h-1.3v0.5h-0.4V7z M39.3,10.9h1.3V7.4h-1.3V10.9z"/>
</g>
</svg>
