<?xml version="1.0" encoding="utf-8"?>
<!-- Generator: Adobe Illustrator 23.1.1, SVG Export Plug-In . SVG Version: 6.00 Build 0)  -->
<svg version="1.1" id="レイヤー_1" xmlns="http://www.w3.org/2000/svg" xmlns:xlink="http://www.w3.org/1999/xlink" x="0px"
	 y="0px" viewBox="0 0 55.94 18.38" style="enable-background:new 0 0 55.94 18.38;" xml:space="preserve">
<style type="text/css">
	.st0{fill:#FFFFFF;stroke:#F08218;stroke-width:0.5;stroke-miterlimit:10;}
	.st1{fill:#F08218;}
</style>
<polygon class="st0" points="46.09,17.88 0.5,17.88 0.5,0.5 46.09,0.5 46.09,7.41 51.78,9.53 46.09,12.08 "/>
<g>
	<path class="st1" d="M4.33,8.89C4.78,9.26,5,9.47,5.55,10.02c0.26-0.22,0.58-0.5,0.8-0.74c0.33-0.35,0.74-0.89,0.99-1.3
		c0.02-0.03,0.02-0.04,0.05-0.07c-0.09,0-0.09,0-3.43,0.01c-0.32,0-0.49,0.01-0.7,0.02V7.47c0.21,0.03,0.35,0.04,0.7,0.04h3.5
		c0.21,0,0.24-0.01,0.34-0.04l0.25,0.3C7.98,7.84,7.94,7.89,7.81,8.08C7.22,9,6.59,9.72,5.83,10.33c0.23,0.25,0.47,0.56,0.88,1.09
		l-0.37,0.31C5.8,10.86,4.9,9.88,4,9.15L4.33,8.89z"/>
	<path class="st1" d="M12.82,7.21c-0.11,0.08-0.11,0.09-0.26,0.25c-0.38,0.4-0.89,0.83-1.4,1.21v2.55c0,0.34,0.01,0.47,0.03,0.64
		h-0.52c0.03-0.16,0.04-0.29,0.04-0.62V8.95C9.92,9.43,9.48,9.63,8.38,10C8.3,9.81,8.27,9.75,8.15,9.6
		c1.13-0.29,2.16-0.81,3.11-1.55c0.56-0.43,0.98-0.85,1.15-1.13L12.82,7.21z"/>
	<path class="st1" d="M15.24,7.43c-0.04-0.25-0.07-0.37-0.13-0.51l0.47-0.08c0.01,0.14,0.02,0.26,0.07,0.51l0.12,0.66l1.35-0.21
		c0.26-0.04,0.39-0.07,0.53-0.12l0.08,0.43c-0.16,0.02-0.16,0.02-0.53,0.08L15.84,8.4l0.23,1.21l1.49-0.24
		c0.27-0.05,0.44-0.08,0.59-0.14l0.08,0.44c-0.12,0.01-0.16,0.01-0.26,0.03c-0.02,0-0.08,0.01-0.19,0.03
		c-0.07,0.01-0.1,0.02-0.14,0.02L16.14,10l0.25,1.33c0.05,0.31,0.07,0.38,0.13,0.57l-0.48,0.09c-0.01-0.16-0.03-0.31-0.07-0.58
		l-0.25-1.34l-1.61,0.26c-0.34,0.05-0.38,0.06-0.58,0.12l-0.08-0.46c0.2,0,0.35-0.01,0.59-0.05l1.6-0.26l-0.22-1.21L14.2,8.66
		c-0.25,0.04-0.44,0.08-0.6,0.13l-0.08-0.46c0.2-0.01,0.35-0.02,0.62-0.06l1.22-0.19L15.24,7.43z"/>
	<path class="st1" d="M19.86,8.41c-0.06-0.3-0.06-0.31-0.11-0.44l0.44-0.07c0,0.12,0.01,0.14,0.07,0.45l0.1,0.52l2.01-0.33
		c0.13-0.02,0.19-0.04,0.26-0.07l0.25,0.22c-0.05,0.08-0.08,0.12-0.14,0.26c-0.26,0.61-0.62,1.04-1.16,1.41
		c-0.11-0.13-0.17-0.17-0.32-0.26c0.53-0.31,0.83-0.62,1.08-1.15c0.01-0.02,0.01-0.03,0.02-0.05c-0.07,0.02-0.07,0.02-0.16,0.04
		l-1.79,0.29l0.43,2.25c0.06,0.33,0.06,0.33,0.11,0.47l-0.46,0.08c0-0.14-0.01-0.27-0.05-0.48l-0.42-2.27l-0.59,0.1
		c-0.25,0.04-0.37,0.07-0.52,0.12l-0.08-0.43c0.19,0,0.31-0.01,0.56-0.05l0.58-0.1L19.86,8.41z"/>
	<path class="st1" d="M23.84,8.53c0.22,0.03,0.34,0.04,0.7,0.04h3.08c0.22,0,0.29-0.01,0.39-0.04l0.22,0.26
		c-0.05,0.08-0.07,0.11-0.17,0.38c-0.51,1.4-1.34,2.16-2.89,2.69c-0.07-0.17-0.11-0.24-0.26-0.41c0.8-0.23,1.33-0.5,1.78-0.91
		c0.43-0.39,0.7-0.83,0.97-1.57h-3.13c-0.32,0-0.49,0.01-0.7,0.03V8.53H23.84z M24.36,7.13c0.17,0.04,0.29,0.04,0.63,0.04h2
		c0.34,0,0.46-0.01,0.63-0.04V7.6C27.46,7.58,27.31,7.57,27,7.57h-2.01c-0.32,0-0.46,0.01-0.62,0.03L24.36,7.13L24.36,7.13z"/>
	<path class="st1" d="M30.02,7.04C30,7.18,30,7.26,30,7.54v1.61c0,0.29,0.01,0.35,0.02,0.5h-0.5c0.02-0.14,0.02-0.26,0.02-0.5v-1.6
		c0-0.26-0.01-0.36-0.02-0.5L30.02,7.04L30.02,7.04z M32.68,7.04c-0.02,0.14-0.03,0.23-0.03,0.52v0.71c0,0.95-0.04,1.48-0.15,1.83
		c-0.17,0.56-0.55,1-1.14,1.33c-0.29,0.17-0.58,0.28-1.09,0.43c-0.07-0.17-0.1-0.23-0.25-0.41c0.54-0.12,0.83-0.22,1.14-0.41
		c0.56-0.32,0.85-0.71,0.96-1.27c0.07-0.34,0.08-0.62,0.08-1.53V7.57c0-0.31-0.01-0.4-0.02-0.53H32.68z"/>
	<path class="st1" d="M38.27,11.73c-0.47-0.61-1.15-1.26-1.92-1.85c-0.42,0.48-0.71,0.76-1.15,1.07c-0.41,0.3-0.73,0.5-1.18,0.72
		c-0.1-0.18-0.14-0.25-0.29-0.4c0.46-0.19,0.76-0.35,1.22-0.69c0.96-0.71,1.7-1.66,2.14-2.7c0.01-0.04,0.02-0.04,0.03-0.07
		c0.01-0.02,0.01-0.02,0.02-0.04c-0.05,0-0.07,0-0.14,0L35,7.8c-0.27,0.01-0.44,0.02-0.62,0.05l-0.01-0.49
		c0.16,0.02,0.27,0.03,0.47,0.03c0.02,0,0.07,0,0.16,0l2.14-0.02c0.21-0.01,0.28-0.01,0.38-0.05l0.25,0.26
		c-0.06,0.07-0.1,0.14-0.17,0.29c-0.34,0.74-0.62,1.22-0.99,1.68c0.79,0.6,1.31,1.07,2,1.8L38.27,11.73z"/>
	<path class="st1" d="M40.09,11.86c0.02-0.16,0.04-0.31,0.04-0.63V7.51c0-0.32-0.01-0.46-0.04-0.61h0.52
		c-0.02,0.16-0.03,0.28-0.03,0.62v1.12c0.92,0.33,1.62,0.66,2.67,1.27l-0.26,0.44c-0.56-0.4-1.39-0.84-2.24-1.19
		c-0.09-0.04-0.13-0.06-0.19-0.1l-0.01,0.01c0.02,0.12,0.02,0.2,0.02,0.35v1.8c0,0.34,0.01,0.47,0.03,0.64
		C40.6,11.86,40.09,11.86,40.09,11.86z"/>
</g>
</svg>
