<?xml version="1.0" encoding="utf-8"?>
<!-- Generator: Adobe Illustrator 23.1.1, SVG Export Plug-In . SVG Version: 6.00 Build 0)  -->
<svg version="1.1" id="レイヤー_1" xmlns="http://www.w3.org/2000/svg" xmlns:xlink="http://www.w3.org/1999/xlink" x="0px"
	 y="0px" viewBox="0 0 44.83 17.88" style="enable-background:new 0 0 44.83 17.88;" xml:space="preserve">
<style type="text/css">
	.st0{fill:#FFFFFF;stroke:#F08218;stroke-width:0.5;stroke-miterlimit:10;}
	.st1{fill:#FF8500;}
</style>
<polygon class="st0" points="38.57,17.63 0.25,17.63 0.25,0.25 38.57,0.25 38.57,7.16 44.17,9.28 38.57,11.83 "/>
<g>
	<path class="st1" d="M6.35,11.39c-0.28-0.34-0.38-0.46-0.59-0.67c-0.34,0.52-0.61,0.79-1.18,1.19c-0.08-0.13-0.16-0.22-0.26-0.32
		c0.53-0.32,0.86-0.65,1.17-1.12c-0.32-0.28-0.5-0.41-0.96-0.69c0.23-0.53,0.4-1.03,0.56-1.67H4.91c-0.19,0-0.34,0.01-0.49,0.04
		V7.73c0.15,0.02,0.31,0.04,0.53,0.04h0.22c0.11-0.49,0.17-0.9,0.17-1.14c0-0.02,0-0.05-0.01-0.08l0.44,0.04
		C5.74,6.67,5.73,6.75,5.7,6.95C5.66,7.16,5.6,7.52,5.54,7.76h0.52c0.25,0,0.41-0.01,0.55-0.02C6.6,7.82,6.6,7.82,6.58,8.01
		c-0.1,1.01-0.29,1.73-0.63,2.37c0.25,0.22,0.36,0.34,0.67,0.68L6.35,11.39z M5.47,8.1C5.3,8.75,5.19,9.08,4.98,9.64
		c0.35,0.23,0.47,0.32,0.7,0.5C5.96,9.57,6.1,9.01,6.2,8.1H5.47z M8,8.86c0-0.22-0.01-0.37-0.04-0.59h0.21
		c0.38-0.31,0.62-0.56,0.92-0.99H7.4c-0.22,0-0.44,0.01-0.59,0.04V6.89c0.16,0.02,0.35,0.04,0.61,0.04h1.54
		c0.25,0,0.37-0.01,0.46-0.03l0.22,0.28C9.6,7.22,9.6,7.22,9.29,7.61C9.03,7.94,8.8,8.17,8.38,8.53v0.58h0.99
		c0.26,0,0.38-0.01,0.53-0.04V9.5C9.74,9.47,9.62,9.46,9.37,9.46H8.38v1.96c0,0.4-0.11,0.49-0.59,0.49c-0.16,0-0.4-0.02-0.72-0.05
		c-0.01-0.17-0.03-0.25-0.08-0.41c0.34,0.05,0.61,0.08,0.77,0.08c0.2,0,0.25-0.02,0.25-0.13V9.46H7.19c-0.24,0-0.38,0.01-0.55,0.04
		V9.07C6.79,9.1,6.91,9.11,7.18,9.11H8V8.86z"/>
	<path class="st1" d="M10.56,7.67c0.14,0.01,0.25,0.02,0.45,0.02c0.5,0,0.87-0.02,1.42-0.08c-0.19-0.46-0.31-0.74-0.36-0.82
		l0.45-0.08c0.05,0.22,0.17,0.53,0.32,0.85c0.7-0.11,1.27-0.25,1.6-0.4l0.04,0.39c-0.53,0.14-1.18,0.28-1.51,0.34
		c0.09,0.2,0.25,0.52,0.34,0.68c0.79-0.16,1.13-0.25,1.37-0.37l0.05,0.4c-0.1,0.02-0.13,0.02-0.32,0.08
		c-0.42,0.11-0.72,0.17-0.94,0.22c0.35,0.57,0.42,0.65,0.88,1.19l-0.35,0.25c-0.23-0.13-0.37-0.18-0.66-0.23
		c-0.21-0.03-0.52-0.05-0.79-0.05c-0.86,0-1.42,0.27-1.42,0.68c0,0.4,0.46,0.61,1.28,0.61c0.62,0,1.42-0.18,1.77-0.4l0.08,0.47
		c-0.08,0.02-0.08,0.02-0.36,0.1c-0.49,0.15-1,0.22-1.54,0.22c-0.55,0-0.93-0.08-1.24-0.25c-0.29-0.16-0.45-0.43-0.45-0.74
		c0-0.65,0.69-1.04,1.83-1.04c0.5,0,0.82,0.05,1.21,0.17c-0.19-0.2-0.43-0.56-0.64-0.92c-0.59,0.11-0.98,0.14-2.1,0.17
		c-0.29,0.01-0.31,0.01-0.42,0.02l-0.01-0.4c0.13,0.01,0.24,0.02,0.48,0.02c0.62,0,1.4-0.06,1.89-0.15
		c-0.16-0.29-0.19-0.36-0.34-0.68C12.1,8,11.62,8.03,10.95,8.04c-0.25,0.01-0.26,0.01-0.37,0.02L10.56,7.67z"/>
	<path class="st1" d="M17.38,6.75c-0.04,0.11-0.05,0.14-0.1,0.38c-0.04,0.2-0.08,0.35-0.16,0.65c0.42-0.04,0.8-0.11,1.07-0.2
		L18.21,8C18.14,8.02,18.14,8.02,18,8.04c-0.25,0.05-0.62,0.1-0.98,0.13c-0.19,0.64-0.4,1.2-0.67,1.75
		c-0.14,0.29-0.2,0.39-0.43,0.79c-0.05,0.08-0.09,0.16-0.12,0.2l-0.41-0.24c0.19-0.24,0.35-0.5,0.58-0.94
		c0.28-0.55,0.45-0.98,0.62-1.55c-0.15,0.01-0.35,0.01-0.44,0.01c-0.1,0-0.31-0.01-0.4-0.01c-0.07-0.01-0.11-0.01-0.13-0.01
		c-0.01,0-0.04,0-0.08,0l0.01-0.41c0.2,0.04,0.38,0.05,0.71,0.05c0.12,0,0.32-0.01,0.43-0.01c0.1-0.34,0.19-0.85,0.2-1.13
		L17.38,6.75z M20.23,11.4c-0.23-0.29-0.61-0.59-1.05-0.82c0.01,0.1,0.01,0.13,0.01,0.19c0,0.62-0.41,0.96-1.14,0.96
		c-0.72,0-1.17-0.34-1.17-0.87c0-0.32,0.22-0.62,0.56-0.76c0.21-0.09,0.44-0.13,0.71-0.13c0.22,0,0.37,0.02,0.61,0.09
		c-0.03-0.39-0.04-0.67-0.04-0.82c0-0.22,0.01-0.36,0.06-0.58l0.41,0.04c-0.06,0.22-0.08,0.35-0.08,0.56c0,0.27,0.03,0.68,0.07,0.91
		c0.48,0.21,0.85,0.44,1.18,0.73c0.07,0.07,0.07,0.07,0.11,0.1L20.23,11.4z M18.11,10.33c-0.51,0-0.83,0.21-0.83,0.54
		c0,0.31,0.29,0.49,0.76,0.49c0.52,0,0.75-0.2,0.75-0.65c0-0.07-0.01-0.26-0.01-0.26C18.53,10.36,18.35,10.33,18.11,10.33z
		 M20.22,8.7c-0.5-0.35-0.96-0.59-1.59-0.82l0.22-0.34c0.7,0.28,1.1,0.48,1.58,0.79L20.22,8.7z"/>
	<path class="st1" d="M22.24,7.44c0-0.31,0-0.35-0.02-0.55h0.49c-0.02,0.17-0.03,0.29-0.03,0.55v0.88l2.43-0.32
		c0.23-0.02,0.24-0.03,0.34-0.08l0.29,0.25c-0.04,0.07-0.05,0.08-0.1,0.17c-0.16,0.34-0.3,0.56-0.46,0.77
		c-0.25,0.32-0.58,0.63-1.02,0.94c-0.14-0.16-0.19-0.2-0.36-0.29c0.65-0.39,1.1-0.85,1.36-1.39c-0.05,0.01-0.08,0.02-0.14,0.03
		C25.01,8.38,25,8.38,24.97,8.39c-0.84,0.11-1.61,0.22-2.29,0.32v1.42c0,0.56,0.02,0.68,0.15,0.79c0.13,0.11,0.38,0.15,0.87,0.15
		c0.63,0,1.28-0.08,1.75-0.21l0.03,0.49c-0.16,0.01-0.2,0.01-0.36,0.03c-0.61,0.08-1.01,0.11-1.42,0.11c-0.68,0-1.03-0.08-1.22-0.28
		c-0.18-0.19-0.22-0.38-0.22-0.99V8.76l-0.73,0.1c-0.4,0.05-0.4,0.05-0.59,0.1l-0.05-0.45c0.04,0,0.07,0,0.09,0
		c0.1,0,0.31-0.02,0.52-0.04l0.76-0.1V7.44z"/>
	<path class="st1" d="M27.34,6.92c-0.02,0.14-0.02,0.22-0.02,0.5v1.61c0,0.29,0.01,0.35,0.02,0.5h-0.5c0.02-0.14,0.02-0.26,0.02-0.5
		v-1.6c0-0.26-0.01-0.36-0.02-0.5H27.34z M29.99,6.92c-0.02,0.14-0.03,0.23-0.03,0.52v0.71c0,0.95-0.04,1.48-0.15,1.83
		c-0.17,0.56-0.55,1-1.14,1.33c-0.29,0.17-0.58,0.28-1.09,0.43c-0.07-0.17-0.1-0.23-0.25-0.41c0.54-0.12,0.83-0.22,1.14-0.41
		c0.56-0.32,0.85-0.71,0.96-1.26c0.07-0.34,0.08-0.62,0.08-1.53V7.45c0-0.31-0.01-0.4-0.02-0.53H29.99z"/>
	<path class="st1" d="M35.44,7.55c-0.04,0.07-0.04,0.07-0.13,0.37c-0.32,1.15-0.77,1.94-1.5,2.6c-0.56,0.5-1.07,0.82-1.88,1.13
		c-0.09-0.2-0.14-0.26-0.29-0.42c0.54-0.16,0.89-0.32,1.36-0.64c0.98-0.65,1.55-1.51,1.89-2.85h-3.05c-0.31,0-0.47,0.01-0.67,0.04
		V7.3c0.23,0.04,0.35,0.04,0.68,0.04h2.95c0.24,0,0.28-0.01,0.38-0.05L35.44,7.55z"/>
</g>
</svg>
