<?xml version="1.0" encoding="utf-8"?>
<!-- Generator: Adobe Illustrator 23.1.1, SVG Export Plug-In . SVG Version: 6.00 Build 0)  -->
<svg version="1.1" id="レイヤー_1" xmlns="http://www.w3.org/2000/svg" xmlns:xlink="http://www.w3.org/1999/xlink" x="0px"
	 y="0px" viewBox="0 0 40.02 18.38" style="enable-background:new 0 0 40.02 18.38;" xml:space="preserve">
<style type="text/css">
	.st0{fill:#FFFFFF;stroke:#F08218;stroke-width:0.5;stroke-miterlimit:10;}
	.st1{fill:#F08218;}
</style>
<g>
	<polygon class="st0" points="32.96,17.88 0.5,17.88 0.5,0.5 32.96,0.5 32.96,7.41 38.69,9.53 32.96,12.08 	"/>
</g>
<g>
	<g>
		<path class="st1" d="M5.18,6.91h5.36V7.3h-2.5v0.71h1.28v2.73H6.38V8.01h1.25V7.3H5.18V6.91z M9.98,11.31V7.94l0.51,0.03
			c-0.01,0.04-0.04,0.07-0.11,0.08v4.01h-0.4v-0.37H5.76v0.39h-0.4V7.94l0.51,0.03c0,0.05-0.03,0.08-0.11,0.09v3.25H9.98z
			 M6.73,8.36V9.2h0.93V8.36H6.73z M6.73,9.53v0.86h0.93V9.53H6.73z M8.96,9.2V8.36H8.02V9.2H8.96z M8.96,10.39V9.53H8.02v0.86
			C8.02,10.39,8.96,10.39,8.96,10.39z"/>
		<path class="st1" d="M11.78,8.68c-0.2,0.35-0.41,0.68-0.63,0.96c-0.04-0.1-0.14-0.3-0.2-0.39c0.52-0.62,1.01-1.67,1.32-2.7
			l0.47,0.15c-0.02,0.04-0.06,0.07-0.14,0.07c-0.13,0.4-0.29,0.8-0.46,1.19L12.28,8c-0.01,0.04-0.04,0.07-0.11,0.08v4.02h-0.39V8.68
			z M15.1,9.05c0.08,0.31,0.19,0.62,0.31,0.9c0.31-0.2,0.67-0.49,0.88-0.7l0.35,0.29c-0.02,0.02-0.07,0.03-0.13,0.02
			c-0.24,0.2-0.65,0.49-0.97,0.67c0.29,0.55,0.67,1,1.13,1.25c-0.09,0.08-0.21,0.22-0.27,0.33c-0.82-0.52-1.37-1.56-1.67-2.77h-0.12
			c-0.12,0.1-0.26,0.19-0.41,0.28c0.6,0.51,0.85,1.19,0.85,1.74c0,0.61-0.29,1.03-0.9,1.03c-0.13,0-0.31-0.01-0.48-0.02
			c-0.01-0.1-0.04-0.25-0.1-0.35c0.2,0.02,0.38,0.03,0.5,0.03c0.16,0,0.27-0.01,0.38-0.1c0.14-0.1,0.23-0.33,0.23-0.62
			c0-0.08-0.01-0.18-0.02-0.28c-0.54,0.47-1.35,0.93-2.02,1.18c-0.05-0.1-0.15-0.22-0.23-0.3c0.74-0.23,1.66-0.74,2.16-1.23
			c-0.05-0.13-0.11-0.26-0.2-0.39c-0.44,0.34-1.1,0.69-1.62,0.88c-0.05-0.08-0.14-0.22-0.22-0.29c0.55-0.16,1.25-0.5,1.67-0.83
			c-0.08-0.1-0.17-0.19-0.28-0.28c-0.39,0.21-0.82,0.4-1.21,0.53c-0.05-0.07-0.16-0.2-0.22-0.27c0.52-0.16,1.12-0.41,1.57-0.7h-1.2
			V8.1c-0.07,0.07-0.15,0.13-0.23,0.19c-0.07-0.08-0.2-0.19-0.29-0.23c0.64-0.45,1.1-1.06,1.35-1.54l0.47,0.08
			c-0.01,0.04-0.04,0.07-0.12,0.07C14,6.75,13.95,6.83,13.9,6.91h1.15c0.1,0,0.11,0,0.17-0.02l0.29,0.19
			c-0.02,0.02-0.05,0.04-0.08,0.04c-0.1,0.18-0.26,0.4-0.41,0.58h1.39v1.35H15.1z M13.24,8.01v0.73h1.19V8.01H13.24z M14.58,7.7
			c0.12-0.13,0.25-0.31,0.35-0.47h-1.24c-0.12,0.16-0.25,0.32-0.4,0.47H14.58z M16.03,8.74V8.01H14.8v0.73H16.03z"/>
		<path class="st1" d="M19.11,9.53l-0.7,0.25v1.81c0,0.43-0.2,0.5-1,0.49c-0.02-0.1-0.08-0.26-0.13-0.37
			c0.28,0.01,0.54,0.01,0.62,0.01c0.08-0.01,0.11-0.03,0.11-0.11V9.92c-0.28,0.1-0.54,0.19-0.74,0.26c0,0.05-0.03,0.08-0.07,0.1
			L17.03,9.8c0.27-0.07,0.61-0.17,0.98-0.29V8.1H17.1V7.72h0.91V6.51l0.52,0.03c-0.01,0.05-0.04,0.07-0.12,0.08v1.1h0.69V8.1h-0.69
			v1.28l0.65-0.2L19.11,9.53z M21.97,9.12l0.27,0.12c-0.01,0.03-0.04,0.04-0.05,0.06c-0.23,0.7-0.61,1.26-1.09,1.7
			c0.44,0.33,0.99,0.58,1.62,0.71c-0.1,0.08-0.21,0.25-0.27,0.36c-0.65-0.17-1.21-0.44-1.67-0.81c-0.51,0.37-1.1,0.64-1.72,0.81
			c-0.04-0.1-0.14-0.27-0.22-0.35c0.59-0.14,1.15-0.38,1.64-0.73c-0.38-0.38-0.68-0.85-0.89-1.39l0.31-0.09h-0.53V9.14h2.54
			L21.97,9.12z M20.1,7.13v0.23c0,0.52-0.16,1.18-0.82,1.61C19.22,8.9,19.08,8.75,19,8.69c0.61-0.38,0.71-0.91,0.71-1.33v-0.6h1.98
			v1.48c0,0.13,0.02,0.16,0.14,0.16h0.36c0.12,0,0.14-0.09,0.16-0.74c0.08,0.07,0.24,0.13,0.34,0.16c-0.03,0.74-0.13,0.93-0.46,0.93
			h-0.46c-0.36,0-0.47-0.1-0.47-0.5v-1.1h-1.2V7.13z M19.95,9.52c0.19,0.47,0.47,0.89,0.83,1.23c0.38-0.34,0.69-0.75,0.89-1.23
			H19.95z"/>
		<path class="st1" d="M24.43,8.65v0.39c0.18,0.17,0.68,0.73,0.8,0.88l-0.25,0.31c-0.1-0.18-0.35-0.52-0.55-0.78v2.64h-0.39V9.37
			c-0.22,0.62-0.5,1.24-0.78,1.62c-0.04-0.11-0.14-0.27-0.22-0.36c0.35-0.45,0.73-1.27,0.94-1.98h-0.87V8.27h0.93V7.24
			c-0.28,0.08-0.56,0.16-0.83,0.22c-0.02-0.08-0.08-0.22-0.13-0.29C23.74,7,24.49,6.76,24.9,6.5l0.35,0.3
			c-0.04,0.02-0.05,0.02-0.12,0.02c-0.19,0.1-0.43,0.2-0.7,0.29v1.15h0.79v0.38L24.43,8.65L24.43,8.65z M27.08,7.16h1.57v0.33h-3.42
			V7.16h1.46V6.52l0.51,0.03c-0.01,0.04-0.04,0.07-0.12,0.08C27.08,6.63,27.08,7.16,27.08,7.16z M28.48,9.47v2.2
			c0,0.4-0.2,0.41-0.89,0.41c-0.01-0.1-0.07-0.23-0.11-0.32c0.13,0,0.25,0.01,0.34,0.01c0.25,0,0.28,0,0.28-0.09V9.81h-2.42v2.27
			h-0.37V9.47H28.48z M25.75,7.86h2.3v1.23h-2.3V7.86z M27.69,8.78V8.17h-1.6v0.62h1.6V8.78z M27.65,11.4h-1.23v0.31h-0.3v-1.52
			h1.53C27.65,10.19,27.65,11.4,27.65,11.4z M27.35,10.47h-0.93v0.65h0.93V10.47z"/>
	</g>
</g>
</svg>
