<?xml version="1.0" encoding="utf-8"?>
<!-- Generator: Adobe Illustrator 24.0.1, SVG Export Plug-In . SVG Version: 6.00 Build 0)  -->
<svg version="1.0" id="レイヤー_1" xmlns="http://www.w3.org/2000/svg" xmlns:xlink="http://www.w3.org/1999/xlink" x="0px"
	 y="0px" viewBox="0 0 40 18.4" enable-background="new 0 0 40 18.4" xml:space="preserve">
<g>
	<polygon fill="#FFFFFF" stroke="#F08218" stroke-width="0.5" stroke-miterlimit="10" points="33,17.9 0.5,17.9 0.5,0.5 33,0.5 
		33,7.4 38.7,9.5 33,12.1 	"/>
</g>
<g>
	<path fill="#FF8500" d="M3.2,6.4h6v0.4H6.4v0.8h1.4v3.1H4.5V7.6h1.4V6.8H3.2V6.4z M8.6,11.3V7.5l0.6,0c0,0,0,0.1-0.1,0.1v4.5H8.6
		v-0.4H3.8v0.4H3.4V7.5l0.6,0c0,0,0,0.1-0.1,0.1v3.7H8.6z M4.9,8v1h1V8H4.9z M4.9,9.3v1h1v-1H4.9z M7.4,8.9V8H6.4v1H7.4z M7.4,10.3
		v-1H6.4v1H7.4z"/>
	<path fill="#FF8500" d="M10.6,8.4c-0.2,0.4-0.5,0.8-0.7,1.1c0-0.1-0.2-0.3-0.2-0.4c0.6-0.7,1.1-1.9,1.5-3l0.5,0.2
		c0,0-0.1,0.1-0.2,0.1c-0.1,0.5-0.3,0.9-0.5,1.3l0.2,0c0,0,0,0.1-0.1,0.1v4.5h-0.4V8.4z M14.3,8.8c0.1,0.4,0.2,0.7,0.4,1
		c0.3-0.2,0.8-0.6,1-0.8l0.4,0.3c0,0-0.1,0-0.1,0c-0.3,0.2-0.7,0.5-1.1,0.8c0.3,0.6,0.8,1.1,1.3,1.4c-0.1,0.1-0.2,0.2-0.3,0.4
		c-0.9-0.6-1.5-1.8-1.9-3.1h-0.1c-0.1,0.1-0.3,0.2-0.5,0.3c0.7,0.6,1,1.3,1,2c0,0.7-0.3,1.2-1,1.2c-0.1,0-0.3,0-0.5,0
		c0-0.1,0-0.3-0.1-0.4c0.2,0,0.4,0,0.6,0c0.2,0,0.3,0,0.4-0.1c0.2-0.1,0.3-0.4,0.3-0.7c0-0.1,0-0.2,0-0.3c-0.6,0.5-1.5,1-2.3,1.3
		c-0.1-0.1-0.2-0.2-0.3-0.3c0.8-0.3,1.9-0.8,2.4-1.4c-0.1-0.1-0.1-0.3-0.2-0.4c-0.5,0.4-1.2,0.8-1.8,1c-0.1-0.1-0.2-0.2-0.2-0.3
		c0.6-0.2,1.4-0.6,1.9-0.9c-0.1-0.1-0.2-0.2-0.3-0.3c-0.4,0.2-0.9,0.4-1.4,0.6c-0.1-0.1-0.2-0.2-0.3-0.3c0.6-0.2,1.3-0.5,1.8-0.8
		h-1.4V7.7c-0.1,0.1-0.2,0.1-0.3,0.2c-0.1-0.1-0.2-0.2-0.3-0.3c0.7-0.5,1.2-1.2,1.5-1.7L13.3,6c0,0,0,0.1-0.1,0.1
		c0,0.1-0.1,0.2-0.2,0.3h1.3c0.1,0,0.1,0,0.2,0l0.3,0.2c0,0-0.1,0-0.1,0c-0.1,0.2-0.3,0.4-0.5,0.7h1.6v1.5H14.3z M12.3,7.6v0.8h1.3
		V7.6H12.3z M13.8,7.2c0.1-0.1,0.3-0.3,0.4-0.5h-1.4c-0.1,0.2-0.3,0.4-0.4,0.5H13.8z M15.4,8.4V7.6H14v0.8H15.4z"/>
	<path fill="#FF8500" d="M17.5,8.3c-0.3,0.4-0.5,0.8-0.8,1.1c0-0.1-0.2-0.3-0.2-0.4c0.6-0.7,1.3-1.9,1.7-3l0.5,0.2
		c0,0-0.1,0.1-0.2,0.1c-0.2,0.5-0.4,0.9-0.6,1.4l0.2,0c0,0,0,0.1-0.1,0.1v4.5h-0.4V8.3z M22.8,9.7h-1.7c0.4,0.7,1.2,1.5,1.9,1.8
		c-0.1,0.1-0.2,0.2-0.3,0.4c-0.7-0.4-1.4-1.2-1.8-1.9v2.2h-0.5V10c-0.5,0.8-1.2,1.5-1.9,1.9c-0.1-0.1-0.2-0.3-0.3-0.4
		c0.7-0.4,1.5-1.1,1.9-1.8h-1.8V9.3h2V8.5h-1.5V6.2h3.6v2.3h-1.6v0.8h2V9.7z M19.3,6.6v1.4H22V6.6H19.3z"/>
	<path fill="#FF8500" d="M29.5,7.2h-3.7c-0.2,0.5-0.5,1-0.9,1.5l0.1,0c0,0-0.1,0.1-0.1,0.1v3.3h-0.5V9.4c-0.3,0.3-0.5,0.5-0.8,0.8
		c-0.1-0.1-0.2-0.3-0.2-0.4c0.4-0.3,0.8-0.7,1.1-1.1V8.6l0,0c0.3-0.4,0.6-0.9,0.8-1.4h-1.7V6.8h1.9c0.1-0.3,0.2-0.6,0.3-0.9l0.6,0.2
		c0,0-0.1,0.1-0.2,0.1c-0.1,0.2-0.1,0.4-0.2,0.7h3.6V7.2z M29.6,9.8v0.4h-1.9v1.4c0,0.3-0.1,0.4-0.3,0.5c-0.2,0.1-0.6,0.1-1.2,0.1
		c0-0.1-0.1-0.3-0.1-0.4c0.2,0,0.5,0,0.6,0c0.5,0,0.5,0,0.5-0.1v-1.4h-2V9.8h2V9.2l0.2,0c0.3-0.2,0.6-0.5,0.9-0.7h-2.4V8.1h2.9
		l0.1,0l0.4,0.2c0,0-0.1,0.1-0.1,0.1c-0.3,0.4-0.9,0.8-1.4,1.1v0.4H29.6z"/>
</g>
</svg>
