<?xml version="1.0" encoding="utf-8"?>
<!-- Generator: Adobe Illustrator 23.1.1, SVG Export Plug-In . SVG Version: 6.00 Build 0)  -->
<svg version="1.1" id="レイヤー_1" xmlns="http://www.w3.org/2000/svg" xmlns:xlink="http://www.w3.org/1999/xlink" x="0px"
	 y="0px" viewBox="0 0 97.21 126.1" style="enable-background:new 0 0 97.21 126.1;" xml:space="preserve">
<style type="text/css">
	.st0{fill:#333333;}
	.st1{fill:#EEEEEE;stroke:#333333;stroke-width:3;}
	.st2{fill:#FF8500;}
	.st3{fill:none;stroke:#333333;stroke-width:3;}
</style>
<g>
	<path class="st0" d="M50.56,126.1L0.42,86.37L0,14.53L49.89,0l46.99,14.03l0.42,71.7L50.56,126.1z M8.71,82.33l41.63,32.99
		l38.64-33.37l-0.36-61.72L49.87,8.66L8.35,20.75L8.71,82.33z"/>
	<polygon class="st1" points="93.14,83.84 50.45,120.71 4.57,84.35 4.18,17.64 49.88,4.33 92.75,17.13 	"/>
	<polygon class="st2" points="93.04,83.94 50.11,119.46 50.11,5.89 93.04,17.6 	"/>
	<g>
		<polygon class="st3" points="93.14,83.84 50.45,120.71 4.57,84.35 4.18,17.64 49.88,4.33 92.75,17.13 		"/>
	</g>
	<path class="st0" d="M50.46,120.93l-0.11-0.09L4.4,84.43v-0.08L4.01,17.51l0.13-0.04L49.89,4.14l0.05,0.01l42.99,12.84v0.13
		l0.39,66.79l-0.06,0.05L50.46,120.93z M4.74,84.27l45.71,36.22l42.52-36.73l-0.39-66.5L49.88,4.51L4.35,17.77L4.74,84.27z"/>
</g>
</svg>
