<?xml version="1.0" encoding="utf-8"?>
<!-- Generator: Adobe Illustrator 23.1.1, SVG Export Plug-In . SVG Version: 6.00 Build 0)  -->
<svg version="1.1" id="レイヤー_1" xmlns="http://www.w3.org/2000/svg" xmlns:xlink="http://www.w3.org/1999/xlink" x="0px"
	 y="0px" viewBox="0 0 141.73 141.73" style="enable-background:new 0 0 141.73 141.73;" xml:space="preserve">
<style type="text/css">
	.st0{fill:#C9C9C9;stroke:#C9C9C9;stroke-miterlimit:10;}
	.st1{fill:#6E6E6E;stroke:#6E6E6E;stroke-miterlimit:10;}
</style>
<g>
	<path class="st0" d="M87.36,80.72c10.1-12.55,9.32-30.95-2.32-42.6c-12.48-12.48-32.71-12.48-45.19,0s-12.48,32.71,0,45.19
		c11.65,11.65,30.05,12.42,42.6,2.32l24.27,24.27l4.92-4.92L87.36,80.72z M62.36,90.91c-16.71,0-30.26-13.55-30.26-30.26
		S45.65,30.4,62.36,30.4s30.26,13.55,30.26,30.26S79.07,90.91,62.36,90.91z"/>
</g>
<g>
	<path class="st0" d="M87.36,80.72c10.1-12.55,9.32-30.95-2.32-42.6c-12.48-12.48-32.71-12.48-45.19,0s-12.48,32.71,0,45.19
		c11.65,11.65,30.05,12.42,42.6,2.32l24.27,24.27l4.92-4.92L87.36,80.72z M62.36,90.91c-16.71,0-30.26-13.55-30.26-30.26
		S45.65,30.4,62.36,30.4s30.26,13.55,30.26,30.26S79.07,90.91,62.36,90.91z"/>
</g>
<g>
	<path class="st0" d="M87.36,80.72c10.1-12.55,9.32-30.95-2.32-42.6c-12.48-12.48-32.71-12.48-45.19,0s-12.48,32.71,0,45.19
		c11.65,11.65,30.05,12.42,42.6,2.32l24.27,24.27l4.92-4.92L87.36,80.72z M62.36,90.91c-16.71,0-30.26-13.55-30.26-30.26
		S45.65,30.4,62.36,30.4s30.26,13.55,30.26,30.26S79.07,90.91,62.36,90.91z"/>
</g>
<g>
	<path class="st0" d="M87.36,80.72c10.1-12.55,9.32-30.95-2.32-42.6c-12.48-12.48-32.71-12.48-45.19,0s-12.48,32.71,0,45.19
		c11.65,11.65,30.05,12.42,42.6,2.32l24.27,24.27l4.92-4.92L87.36,80.72z M62.36,90.91c-16.71,0-30.26-13.55-30.26-30.26
		S45.65,30.4,62.36,30.4s30.26,13.55,30.26,30.26S79.07,90.91,62.36,90.91z"/>
</g>
<g>
	<path class="st0" d="M87.36,80.72c10.1-12.55,9.32-30.95-2.32-42.6c-12.48-12.48-32.71-12.48-45.19,0s-12.48,32.71,0,45.19
		c11.65,11.65,30.05,12.42,42.6,2.32l24.27,24.27l4.92-4.92L87.36,80.72z M62.36,90.91c-16.71,0-30.26-13.55-30.26-30.26
		S45.65,30.4,62.36,30.4s30.26,13.55,30.26,30.26S79.07,90.91,62.36,90.91z"/>
</g>
<g>
	<path class="st1" d="M87.36,80.72c10.1-12.55,9.32-30.95-2.32-42.6c-12.48-12.48-32.71-12.48-45.19,0s-12.48,32.71,0,45.19
		c11.65,11.65,30.05,12.42,42.6,2.32l24.27,24.27l4.92-4.92L87.36,80.72z M62.36,90.91c-16.71,0-30.26-13.55-30.26-30.26
		S45.65,30.4,62.36,30.4s30.26,13.55,30.26,30.26S79.07,90.91,62.36,90.91z"/>
</g>
</svg>
